<!DOCTYPE svg PUBLIC "-//W3C//DTD SVG 1.1//EN" "http://www.w3.org/Graphics/SVG/1.1/DTD/svg11.dtd">
<!-- Uploaded to: SVG Repo, www.svgrepo.com, Transformed by: SVG Repo Mixer Tools -->
<svg fill="#000000" width="800px" height="800px" viewBox="0 0 24 24" xmlns="http://www.w3.org/2000/svg">
<g id="SVGRepo_bgCarrier" stroke-width="0"/>
<g id="SVGRepo_tracerCarrier" stroke-linecap="round" stroke-linejoin="round"/>
<g id="SVGRepo_iconCarrier">
<path d="M1,12A11.013,11.013,0,0,1,12,1a1,1,0,0,1,0,2,9,9,0,1,0,3.6,17.252,1,1,0,1,1,.8,1.832A11,11,0,0,1,1,12ZM16.4,1.916a1,1,0,1,0-.8,1.832A9,9,0,0,1,18.427,18.3a1,1,0,1,0,1.428,1.4A11,11,0,0,0,16.4,1.916Z"/>
</g>
</svg>